<svg width="56" height="56" viewBox="0 0 56 56" fill="none" xmlns="http://www.w3.org/2000/svg">
<rect width="56" height="56" rx="4" fill="#F6F4FA"/>
<g clip-path="url(#clip0_3_66)">
<path d="M24.7523 12.9144C25.6426 12.024 26.9002 11.6049 28.1467 11.783L39.6953 13.4338C41.4551 13.6854 42.8378 15.0682 43.0891 16.828L44.7389 28.3785C44.9169 29.6248 44.4977 30.8823 43.6075 31.7725L29.7016 45.6783C29.3891 45.9908 28.9652 46.1663 28.5233 46.1663C28.0814 46.1663 27.6575 45.9908 27.345 45.6783L10.845 29.1783C10.5325 28.8658 10.357 28.4419 10.357 28C10.357 27.5581 10.5325 27.1342 10.845 26.8217L24.7523 12.9144ZM30.88 25.6433C31.1896 25.9528 31.5571 26.1983 31.9615 26.3657C32.366 26.5332 32.7995 26.6193 33.2372 26.6193C33.675 26.6192 34.1084 26.5329 34.5128 26.3653C34.9172 26.1977 35.2847 25.9521 35.5941 25.6425C35.9036 25.3329 36.1491 24.9654 36.3165 24.5609C36.484 24.1565 36.5701 23.723 36.5701 23.2852C36.57 22.8475 36.4837 22.414 36.3161 22.0096C36.1485 21.6052 35.9029 21.2378 35.5933 20.9283C35.2837 20.6189 34.9162 20.3734 34.5117 20.2059C34.1073 20.0385 33.6738 19.9523 33.236 19.9524C32.352 19.9526 31.5042 20.3039 30.8791 20.9292C30.2541 21.5544 29.9031 22.4023 29.9032 23.2864C29.9034 24.1705 30.2547 25.0183 30.88 25.6433Z" fill="#5BADEC"/>
</g>
<defs>
<clipPath id="clip0_3_66">
<rect width="40" height="40" fill="white" transform="translate(8 8)"/>
</clipPath>
</defs>
</svg>
